# xmcd
#
# Track frame offsets: 
#        150
#        20407
#        44937
#        61250
#        70526
#        93739
#        112740
#        128907
#        148206
#        152504
#        168130
#        188018
#        205765
#        213722
#        235664
#
# Disc length: 3394 seconds
#
# Revision: 0
# Processed by: cddbd v1.5.2PL0 Copyright (c) Steve Scherf et al.
# Submitted via: ExactAudioCopyFreeDBPlugin 1.0
#
DISCID=d00d400f
DTITLE=Matthias Schweighöfer - Lachen Winen Tanzen
DYEAR=2017
DGENRE=
TTITLE0=Lachen Weinen Tanzen
TTITLE1=Superman und seine Frau
TTITLE2=Viel zu viel
TTITLE3=Regen (Interlude)
TTITLE4=Wege
TTITLE5=Am Ende des Tages
TTITLE6=Auf uns Zwei
TTITLE7=Bester Freund
TTITLE8=Interlude
TTITLE9=Deine Liebe
TTITLE10=Durch den Sturm
TTITLE11=Fallschirm
TTITLE12=Gute Stille (Interlude)
TTITLE13=Rest der Welt
TTITLE14=Unzertrennlich
EXTD=
EXTT0=
EXTT1=
EXTT2=
EXTT3=
EXTT4=
EXTT5=
EXTT6=
EXTT7=
EXTT8=
EXTT9=
EXTT10=
EXTT11=
EXTT12=
EXTT13=
EXTT14=
PLAYORDER=
